<?xml version="1.0" standalone="no"?>
<!DOCTYPE svg PUBLIC "-//W3C//DTD SVG 20010904//EN"
 "http://www.w3.org/TR/2001/REC-SVG-20010904/DTD/svg10.dtd">
<svg version="1.0" xmlns="http://www.w3.org/2000/svg"
 width="270.000000pt" height="270.000000pt" viewBox="0 0 270.000000 270.000000"
 preserveAspectRatio="xMidYMid meet">
<metadata>
Created by potrace 1.14, written by Peter Selinger 2001-2017
</metadata>
<g transform="translate(0.000000,270.000000) scale(0.100000,-0.100000)"
fill="#000000" stroke="none">
<path d="M1094 2538 c-4 -7 -4 -10 1 -6 4 4 15 2 24 -5 14 -11 14 -10 2 6 -16
20 -18 21 -27 5z"/>
<path d="M1173 2530 c1 -21 10 -18 13 5 1 8 -2 15 -6 15 -5 0 -8 -9 -7 -20z"/>
<path d="M1350 2545 c0 -6 5 -16 12 -23 9 -9 7 -12 -11 -12 -12 0 -20 3 -18 8
3 4 -8 7 -23 7 -16 1 -26 -3 -24 -7 3 -4 -5 -8 -18 -8 -19 0 -20 2 -8 10 12 8
11 9 -7 7 -11 -2 -29 -9 -39 -17 -11 -9 -15 -10 -10 -2 4 6 3 12 -3 12 -5 0
-13 -5 -16 -10 -4 -6 -11 -8 -16 -4 -18 11 -69 11 -69 0 0 -6 -5 -4 -10 4 -5
8 -10 10 -10 5 0 -6 -33 -10 -79 -11 -44 0 -78 3 -75 7 2 4 -1 11 -7 15 -7 4
-9 3 -6 -3 4 -6 -1 -17 -10 -24 -15 -12 -16 -11 -11 9 4 12 2 20 -3 16 -5 -3
-9 -13 -9 -22 0 -15 -2 -15 -10 -2 -8 12 -11 13 -19 1 -6 -9 -11 -10 -15 -2
-4 6 -13 11 -19 11 -7 0 -6 -4 3 -10 10 -6 2 -8 -28 -7 -23 2 -42 -2 -42 -7 0
-5 -3 -6 -6 -3 -4 3 -16 2 -26 -4 -16 -9 -19 -8 -16 3 3 7 10 13 16 13 5 0 13
3 17 7 7 7 -5 5 -43 -7 -18 -6 -21 -10 -10 -17 9 -6 6 -7 -9 -3 -15 4 -23 2
-23 -6 0 -8 -5 -8 -17 2 -14 12 -15 12 -9 1 7 -11 4 -12 -13 -3 -12 7 -21 8
-20 4 3 -20 -2 -27 -11 -13 -8 13 -10 12 -10 -3 0 -10 -4 -15 -10 -12 -5 3
-10 0 -10 -7 0 -9 -3 -9 -8 -2 -8 13 -44 15 -36 2 3 -5 10 -6 15 -3 5 4 9 4 9
1 0 -9 -57 -36 -63 -30 -3 3 -11 -4 -17 -16 -6 -12 -14 -19 -17 -16 -3 3 -12
-2 -20 -12 -8 -9 -12 -11 -8 -4 3 6 1 12 -4 12 -6 0 -11 -9 -11 -19 0 -11 -5
-23 -12 -27 -6 -4 -8 -3 -4 4 3 6 3 13 -2 16 -4 2 -8 -4 -9 -14 -2 -22 -40
-63 -52 -56 -4 3 -6 -6 -3 -19 2 -15 0 -25 -7 -25 -7 0 -9 5 -5 12 4 6 3 8 -4
4 -6 -3 -9 -15 -7 -26 4 -22 -10 -28 -18 -7 -4 9 -6 9 -6 0 -1 -6 3 -14 8 -17
5 -3 1 -22 -10 -42 -10 -21 -16 -41 -12 -47 4 -6 1 -7 -6 -3 -8 5 -12 3 -10
-5 3 -29 -1 -40 -13 -33 -10 6 -10 4 -2 -7 5 -8 10 -21 9 -29 -1 -8 -3 -21 -3
-28 -1 -8 -7 -10 -15 -6 -8 5 -8 2 2 -9 11 -14 11 -17 0 -18 -8 -1 -18 -1 -22
0 -5 1 -6 -3 -2 -9 3 -6 10 -8 16 -5 5 3 8 -12 6 -34 -1 -21 -5 -37 -9 -34 -5
2 -8 -1 -8 -6 0 -6 5 -11 11 -11 8 0 8 -4 2 -12 -6 -7 -9 -43 -8 -80 2 -60 0
-66 -13 -50 -9 11 -8 7 2 -10 9 -16 12 -28 6 -28 -5 0 -10 -5 -10 -11 0 -5 4
-8 8 -5 5 3 9 -1 9 -9 0 -8 -5 -15 -11 -15 -6 0 -4 -5 4 -10 8 -5 10 -10 4
-10 -7 0 -15 -7 -18 -16 -3 -8 -2 -13 3 -9 14 8 11 -167 -2 -184 -9 -12 -9
-13 1 -7 6 4 12 2 12 -3 0 -6 -6 -11 -12 -11 -9 0 -8 -4 2 -10 8 -5 12 -10 8
-10 -4 0 -3 -13 2 -30 5 -18 5 -32 -1 -36 -5 -3 -6 -10 -3 -16 4 -6 0 -14 -7
-19 -10 -6 -11 -9 -1 -9 6 0 12 -5 12 -11 0 -5 -4 -7 -10 -4 -5 3 -10 1 -10
-4 0 -6 5 -11 10 -11 6 0 10 -5 10 -11 0 -5 -4 -8 -8 -5 -5 3 -9 -1 -9 -9 0
-8 4 -12 9 -9 4 3 8 -2 8 -11 0 -9 -5 -13 -11 -10 -6 4 -5 -2 2 -13 11 -17 10
-24 -2 -38 -8 -10 -9 -15 -2 -11 15 10 15 -52 -1 -72 -8 -11 -8 -13 1 -8 6 4
14 3 18 -3 3 -5 -2 -10 -12 -11 -16 0 -16 -1 2 -9 11 -5 14 -9 8 -9 -9 -1 -10
-8 -3 -26 8 -21 6 -25 -8 -26 -15 0 -15 -1 -1 -7 10 -5 15 -18 13 -37 -1 -16
4 -33 10 -37 8 -5 7 -8 -2 -8 -8 0 -10 -5 -5 -13 11 -18 13 -38 2 -31 -5 3 -9
0 -9 -5 0 -6 6 -11 13 -11 8 0 7 -4 -3 -10 -10 -6 -11 -10 -2 -10 6 0 12 -7
12 -16 0 -9 -5 -12 -12 -8 -6 4 -4 -3 5 -17 19 -26 22 -43 7 -34 -6 3 -7 -1
-4 -9 3 -9 10 -16 16 -16 5 0 7 -4 4 -9 -3 -4 -1 -22 4 -40 6 -23 6 -30 -3
-24 -7 3 -3 -4 8 -17 11 -13 14 -20 8 -16 -7 4 -13 2 -13 -3 0 -6 7 -11 16
-11 8 0 12 -5 9 -10 -4 -6 -11 -7 -17 -4 -7 4 -8 2 -4 -4 4 -6 14 -8 24 -5 15
6 16 5 2 -12 -8 -10 -10 -16 -4 -12 11 7 34 -32 34 -59 0 -8 4 -12 10 -9 5 3
10 2 10 -4 0 -14 56 -79 92 -106 30 -23 75 -51 106 -66 18 -8 30 -18 27 -21
-3 -3 4 -6 17 -6 13 -1 30 -3 38 -5 8 -3 30 -8 48 -12 17 -4 32 -13 32 -19 0
-6 5 -4 10 4 6 10 10 11 10 3 0 -7 8 -12 18 -11 9 1 32 0 51 0 30 -2 32 -4 20
-19 -13 -16 -12 -17 3 -5 9 8 23 10 29 6 8 -5 9 -3 4 6 -5 8 -3 11 6 8 8 -3
13 -12 11 -19 -2 -11 1 -10 10 1 17 21 51 14 44 -8 -3 -10 1 -8 10 5 13 18 20
21 35 12 11 -5 24 -7 29 -4 5 3 19 1 30 -5 14 -8 20 -8 20 0 0 6 5 8 10 5 6
-4 7 -11 4 -17 -4 -7 -2 -8 5 -4 6 4 9 12 6 17 -4 5 -1 9 4 9 6 0 11 -6 11
-12 0 -9 4 -8 10 2 7 11 10 11 10 2 0 -9 5 -10 18 -3 20 11 36 4 45 -19 4 -12
6 -12 6 2 1 13 12 16 66 16 45 0 63 -4 58 -12 -4 -6 0 -5 9 2 13 10 17 10 21
0 4 -10 6 -10 6 0 1 6 9 12 19 12 10 0 24 -6 31 -12 11 -10 13 -10 7 0 -4 6
-3 12 3 12 5 0 12 -8 14 -17 4 -15 5 -16 6 -2 1 20 77 25 100 6 12 -10 13 -9
7 1 -6 9 -1 12 16 10 12 -2 29 -7 37 -12 10 -6 12 -5 7 2 -4 7 -1 12 8 12 8 0
17 -6 19 -12 4 -10 6 -10 6 0 1 6 8 12 17 12 14 0 15 -2 3 -17 -13 -17 -12
-17 6 -1 25 20 113 29 101 10 -3 -5 1 -9 8 -9 8 0 12 5 10 12 -3 6 6 11 20 11
15 0 22 -4 18 -11 -3 -5 1 -4 10 3 13 10 19 10 31 -2 13 -14 16 -14 21 0 4 10
2 13 -6 8 -7 -4 -8 -3 -4 4 13 22 42 -2 37 -31 -1 -5 3 -6 8 -3 5 3 7 16 4 29
-3 16 -2 18 5 8 6 -8 12 -9 16 -3 3 6 30 9 60 9 30 -1 54 0 54 3 -1 18 4 23
11 11 8 -12 12 -12 25 -2 13 11 19 11 31 1 13 -11 14 -10 10 2 -6 15 -2 17 54
22 19 1 40 11 47 20 13 19 30 4 18 -16 -4 -7 -3 -8 5 -4 7 4 10 13 8 19 -5 16
43 56 59 50 8 -3 11 -10 7 -16 -3 -6 -1 -7 6 -3 9 6 9 11 1 21 -9 11 -6 17 12
26 13 8 26 13 30 14 3 0 10 4 15 9 5 5 3 6 -4 2 -18 -10 -16 9 1 23 11 9 16 9
22 0 5 -8 3 -9 -6 -4 -9 5 -11 4 -6 -4 11 -16 26 -3 19 16 -5 12 -3 14 7 8 9
-5 11 -4 6 3 -8 14 23 64 34 57 5 -3 12 0 16 6 5 8 3 9 -6 4 -9 -5 -11 -3 -6
6 3 8 9 22 12 31 4 10 10 18 15 18 5 0 8 3 7 8 -1 4 1 24 6 45 6 31 10 36 21
27 10 -8 13 -7 11 7 0 10 5 17 12 15 8 -1 11 2 7 8 -5 8 -11 7 -21 -1 -11 -9
-14 -7 -12 15 2 17 7 25 16 21 7 -3 10 0 7 6 -4 5 -1 18 7 27 12 15 11 16 -5
3 -16 -13 -17 -11 -11 25 3 22 11 42 18 46 8 6 8 8 -1 8 -13 0 -13 26 0 47 4
6 3 14 -3 18 -16 10 0 27 18 20 9 -3 13 -3 9 1 -4 4 -1 14 5 23 10 13 10 14
-2 4 -8 -7 -17 -13 -20 -13 -8 0 -4 146 4 159 4 6 11 9 16 6 5 -3 11 -1 15 4
3 6 -3 8 -15 6 -23 -4 -24 -1 -8 28 11 21 10 21 -8 7 -18 -15 -18 -14 0 14 10
16 13 26 8 22 -14 -9 -12 85 2 103 8 11 8 13 -1 7 -14 -8 -12 41 2 65 7 12 6
12 -7 1 -14 -11 -16 -10 -11 7 3 12 9 19 12 16 4 -2 8 2 8 10 0 8 -3 12 -7 10
-10 -6 -6 108 4 124 6 10 6 12 -2 7 -16 -10 -15 26 1 43 8 10 8 12 0 7 -8 -4
-11 4 -11 26 1 37 15 61 31 51 6 -3 7 -1 3 6 -6 9 -11 9 -21 1 -10 -9 -14 -1
-17 40 -1 27 1 50 5 50 5 0 5 6 0 13 -12 19 -10 55 3 50 7 -2 15 1 20 8 4 7 3
10 -4 6 -14 -9 -43 3 -36 14 3 5 10 6 16 3 5 -4 5 4 -2 16 -11 20 -10 22 4 17
10 -4 15 -3 11 3 -3 6 -14 10 -23 10 -15 0 -15 2 -2 10 8 5 10 10 4 10 -14 0
-14 30 0 30 6 0 4 5 -4 10 -8 5 -12 10 -9 10 4 0 3 17 -2 38 -7 30 -5 40 9 51
16 12 15 13 -3 7 -17 -5 -21 -1 -23 24 -1 16 -6 40 -12 54 -9 26 8 53 25 38 5
-4 5 -1 1 6 -6 10 -11 10 -22 1 -11 -9 -14 -8 -14 5 0 9 -4 16 -10 16 -5 0
-10 9 -10 21 0 13 4 18 12 13 7 -4 8 -3 4 5 -4 6 -11 9 -15 6 -11 -6 -43 30
-34 38 3 4 0 7 -8 8 -8 0 -6 4 6 9 19 8 19 9 -2 9 -21 1 -28 11 -24 34 1 5 -3
6 -9 2 -5 -3 -10 -1 -10 5 0 6 -4 8 -10 5 -5 -3 -10 -2 -10 4 0 6 -16 21 -35
34 -19 13 -33 26 -30 29 3 3 -8 11 -25 18 -16 7 -30 17 -30 22 0 6 -7 7 -16 4
-10 -4 -13 -2 -8 6 5 8 2 9 -9 5 -9 -3 -19 -2 -22 4 -4 5 -10 7 -15 4 -5 -3
-15 2 -24 11 -9 8 -21 12 -28 8 -7 -5 -9 -2 -6 7 4 11 -1 15 -17 15 -13 0 -21
-4 -19 -8 3 -4 0 -8 -5 -8 -6 0 -11 5 -11 11 0 8 -4 8 -14 0 -11 -9 -16 -9
-21 -1 -4 7 -16 10 -26 7 -24 -6 -24 1 -1 27 17 21 17 21 -5 2 -13 -11 -23
-16 -23 -12 0 4 -9 2 -20 -4 -15 -8 -20 -8 -20 2 0 8 -3 9 -8 3 -9 -13 -35
-18 -27 -5 3 5 2 10 -4 10 -5 0 -13 -5 -17 -11 -5 -8 -10 -6 -16 5 -6 11 -14
14 -21 8 -7 -5 -28 -8 -47 -6 -19 1 -63 3 -97 4 -37 1 -63 7 -63 13 0 6 -7 2
-16 -9 -15 -19 -16 -19 -9 1 5 16 4 17 -6 8 -10 -10 -16 -10 -28 0 -12 10 -13
9 -7 -1 5 -9 -1 -12 -24 -10 -21 2 -35 9 -41 23 -9 19 -9 19 -5 -2 2 -13 0
-26 -5 -29 -5 -3 -10 0 -10 5 -3 26 -4 30 -11 37 -4 3 -6 -3 -3 -15 2 -11 0
-21 -6 -21 -5 0 -9 5 -9 10 0 6 -5 10 -11 10 -5 0 -8 -4 -4 -9 3 -5 1 -12 -4
-15 -5 -4 -13 -1 -17 5 -5 8 -3 9 6 4 9 -5 11 -4 6 4 -4 6 -11 9 -16 6 -5 -3
-13 3 -19 12 -6 10 -11 13 -11 8z"/>
<path d="M1530 2546 c0 -2 7 -7 16 -10 8 -3 12 -2 9 4 -6 10 -25 14 -25 6z"/>
<path d="M1619 2533 c-12 -16 -12 -17 2 -6 9 7 20 9 24 5 5 -4 5 -1 1 6 -9 16
-11 15 -27 -5z"/>
<path d="M1690 2541 c0 -6 4 -13 10 -16 6 -3 7 1 4 9 -7 18 -14 21 -14 7z"/>
<path d="M995 2520 c3 -5 8 -10 11 -10 2 0 4 5 4 10 0 6 -5 10 -11 10 -5 0 -7
-4 -4 -10z"/>
<path d="M1746 2522 c-2 -4 4 -8 14 -8 10 0 16 4 14 8 -3 4 -9 8 -14 8 -5 0
-11 -4 -14 -8z"/>
<path d="M1990 2501 c0 -6 4 -13 10 -16 6 -3 7 1 4 9 -7 18 -14 21 -14 7z"/>
<path d="M2126 2458 c3 -5 10 -6 15 -3 13 9 11 12 -6 12 -8 0 -12 -4 -9 -9z"/>
<path d="M2280 2381 c0 -6 4 -13 10 -16 6 -3 7 1 4 9 -7 18 -14 21 -14 7z"/>
<path d="M2310 2359 c0 -5 5 -7 10 -4 6 3 10 8 10 11 0 2 -4 4 -10 4 -5 0 -10
-5 -10 -11z"/>
<path d="M2355 2341 c-3 -5 -2 -12 3 -15 5 -3 9 1 9 9 0 17 -3 19 -12 6z"/>
<path d="M316 2303 c-6 -14 -5 -15 5 -6 7 7 10 15 7 18 -3 3 -9 -2 -12 -12z"/>
<path d="M2406 2241 c-4 -5 -2 -12 3 -15 5 -4 12 -2 15 3 4 5 2 12 -3 15 -5 4
-12 2 -15 -3z"/>
<path d="M245 2179 c-4 -6 -5 -12 -2 -15 2 -3 7 2 10 11 7 17 1 20 -8 4z"/>
<path d="M2490 2040 c-9 -6 -10 -10 -3 -10 6 0 15 5 18 10 8 12 4 12 -15 0z"/>
<path d="M2495 1980 c3 -5 8 -10 11 -10 2 0 4 5 4 10 0 6 -5 10 -11 10 -5 0
-7 -4 -4 -10z"/>
<path d="M155 1711 c-3 -5 -2 -12 3 -15 5 -3 9 1 9 9 0 17 -3 19 -12 6z"/>
<path d="M2526 1702 c-3 -5 1 -9 9 -9 8 0 12 4 9 9 -3 4 -7 8 -9 8 -2 0 -6 -4
-9 -8z"/>
<path d="M2530 1560 c0 -5 5 -10 11 -10 5 0 7 5 4 10 -3 6 -8 10 -11 10 -2 0
-4 -4 -4 -10z"/>
<path d="M158 1553 c7 -3 16 -2 19 1 4 3 -2 6 -13 5 -11 0 -14 -3 -6 -6z"/>
<path d="M156 1518 c3 -5 10 -6 15 -3 13 9 11 12 -6 12 -8 0 -12 -4 -9 -9z"/>
<path d="M154 1489 c-3 -6 -1 -16 6 -22 10 -9 11 -9 5 2 -4 8 -2 17 6 22 9 6
10 9 2 9 -6 0 -15 -5 -19 -11z"/>
<path d="M2525 1460 c-3 -5 -1 -10 4 -10 6 0 11 5 11 10 0 6 -2 10 -4 10 -3 0
-8 -4 -11 -10z"/>
<path d="M156 1442 c-3 -5 1 -9 9 -9 8 0 12 4 9 9 -3 4 -7 8 -9 8 -2 0 -6 -4
-9 -8z"/>
<path d="M2525 1380 c3 -5 8 -10 11 -10 2 0 4 5 4 10 0 6 -5 10 -11 10 -5 0
-7 -4 -4 -10z"/>
<path d="M150 1359 c0 -5 5 -7 10 -4 6 3 10 8 10 11 0 2 -4 4 -10 4 -5 0 -10
-5 -10 -11z"/>
<path d="M165 1320 c-16 -7 -17 -9 -3 -9 9 -1 20 4 23 9 7 11 7 11 -20 0z"/>
<path d="M2530 1280 c0 -5 5 -10 11 -10 5 0 7 5 4 10 -3 6 -8 10 -11 10 -2 0
-4 -4 -4 -10z"/>
<path d="M2525 1220 c-3 -5 -1 -10 4 -10 6 0 11 5 11 10 0 6 -2 10 -4 10 -3 0
-8 -4 -11 -10z"/>
<path d="M155 1161 c-3 -5 -2 -12 3 -15 5 -3 9 1 9 9 0 17 -3 19 -12 6z"/>
<path d="M2530 1160 c0 -5 5 -10 11 -10 5 0 7 5 4 10 -3 6 -8 10 -11 10 -2 0
-4 -4 -4 -10z"/>
<path d="M155 1080 c-3 -5 -1 -10 4 -10 6 0 11 5 11 10 0 6 -2 10 -4 10 -3 0
-8 -4 -11 -10z"/>
<path d="M2510 1005 c0 -7 30 -13 34 -7 3 4 -4 9 -15 9 -10 1 -19 0 -19 -2z"/>
<path d="M2516 967 c3 -10 9 -15 12 -12 3 3 0 11 -7 18 -10 9 -11 8 -5 -6z"/>
<path d="M170 919 c0 -5 5 -7 10 -4 6 3 10 8 10 11 0 2 -4 4 -10 4 -5 0 -10
-5 -10 -11z"/>
<path d="M2508 803 c7 -3 16 -2 19 1 4 3 -2 6 -13 5 -11 0 -14 -3 -6 -6z"/>
<path d="M180 740 c0 -5 5 -10 11 -10 5 0 7 5 4 10 -3 6 -8 10 -11 10 -2 0 -4
-4 -4 -10z"/>
<path d="M2495 740 c-3 -5 -1 -10 4 -10 6 0 11 5 11 10 0 6 -2 10 -4 10 -3 0
-8 -4 -11 -10z"/>
<path d="M196 662 c-3 -5 1 -9 9 -9 8 0 12 4 9 9 -3 4 -7 8 -9 8 -2 0 -6 -4
-9 -8z"/>
<path d="M2395 440 c-3 -5 -1 -10 4 -10 6 0 11 5 11 10 0 6 -2 10 -4 10 -3 0
-8 -4 -11 -10z"/>
<path d="M308 413 c7 -3 16 -2 19 1 4 3 -2 6 -13 5 -11 0 -14 -3 -6 -6z"/>
<path d="M412 305 c3 -3 16 -8 28 -10 12 -2 20 -1 16 2 -4 4 -16 8 -28 10 -12
2 -19 1 -16 -2z"/>
<path d="M600 236 c0 -2 8 -10 18 -17 15 -13 16 -12 3 4 -13 16 -21 21 -21 13z"/>
<path d="M2093 215 c0 -8 4 -12 9 -9 5 3 6 10 3 15 -9 13 -12 11 -12 -6z"/>
<path d="M650 211 c0 -6 4 -13 10 -16 6 -3 7 1 4 9 -7 18 -14 21 -14 7z"/>
<path d="M914 168 c-19 -23 -19 -23 2 -5 11 9 24 14 29 10 4 -5 5 -2 1 5 -9
16 -10 16 -32 -10z"/>
<path d="M1153 165 c0 -8 4 -12 9 -9 5 3 6 10 3 15 -9 13 -12 11 -12 -6z"/>
<path d="M1192 171 c-11 -7 -10 -9 3 -14 11 -5 14 -3 9 5 -5 8 -2 9 10 5 10
-4 15 -3 11 3 -7 12 -16 12 -33 1z"/>
<path d="M1393 165 c0 -8 4 -12 9 -9 5 3 6 10 3 15 -9 13 -12 11 -12 -6z"/>
<path d="M1432 171 c-11 -7 -11 -9 0 -14 9 -3 15 1 15 9 0 8 -1 14 -1 14 -1 0
-7 -4 -14 -9z"/>
</g>
</svg>
