<svg width="14" height="14" viewBox="0 0 14 14" xmlns="http://www.w3.org/2000/svg">
<path d="M2 8.0035C2 10.9079 4.33496 13.245 7.2356 13.245C10.1351 13.245 12.4653 10.9079 12.4653 8.0035C12.4653 7.659 12.2239 7.41385 11.8799 7.41385C11.5465 7.41385 11.3205 7.659 11.3205 8.0035C11.3205 10.2736 9.5019 12.097 7.2356 12.097C4.96824 12.097 3.14796 10.2736 3.14796 8.0035C3.14796 5.7214 4.95347 3.90804 7.21765 3.90804C7.60075 3.90804 7.9598 3.93792 8.26015 4.00519L6.66324 5.58455C6.56164 5.692 6.50211 5.82185 6.50211 5.9744C6.50211 6.2956 6.74563 6.5381 7.06205 6.5381C7.2296 6.5381 7.3631 6.4838 7.462 6.37905L9.86865 3.95433C9.9931 3.83468 10.0457 3.69429 10.0457 3.5321C10.0457 3.37789 9.9835 3.22473 9.86865 3.11093L7.462 0.666991C7.36205 0.555312 7.2248 0.5 7.06205 0.5C6.74563 0.5 6.50211 0.754178 6.50211 1.07644C6.50211 1.22902 6.56164 1.35886 6.65843 1.46632L8.0757 2.86496C7.81635 2.81586 7.5213 2.78222 7.21765 2.78222C4.32019 2.78222 2 5.10184 2 8.0035Z"/>
</svg>
